<mxfile host="app.diagrams.net" modified="2022-07-01T18:11:14.677Z" agent="5.0 (Windows NT 10.0; Win64; x64) AppleWebKit/537.36 (KHTML, like Gecko) Chrome/103.0.5060.66 Safari/537.36 Edg/103.0.1264.44" etag="-y2LdSfd5Ibib562ySQP" version="20.0.4" type="github">
  <diagram id="XHyV7-S4l925fI9oDmjC" name="Page-1">
    <mxGraphModel dx="2062" dy="832" grid="1" gridSize="10" guides="1" tooltips="1" connect="1" arrows="1" fold="1" page="1" pageScale="1" pageWidth="827" pageHeight="1169" math="0" shadow="0">
      <root>
        <mxCell id="0" />
        <mxCell id="1" parent="0" />
        <mxCell id="QiqNDmQ0jad0ljrt0aQA-5" style="edgeStyle=orthogonalEdgeStyle;rounded=0;orthogonalLoop=1;jettySize=auto;html=1;entryX=0;entryY=0.5;entryDx=0;entryDy=0;entryPerimeter=0;fillColor=#6a00ff;strokeColor=#3700CC;" edge="1" parent="1" source="QiqNDmQ0jad0ljrt0aQA-1" target="QiqNDmQ0jad0ljrt0aQA-4">
          <mxGeometry relative="1" as="geometry" />
        </mxCell>
        <mxCell id="QiqNDmQ0jad0ljrt0aQA-1" value="check cpfs" style="ellipse;whiteSpace=wrap;html=1;aspect=fixed;fillColor=#0050ef;strokeColor=#001DBC;fontColor=#ffffff;" vertex="1" parent="1">
          <mxGeometry x="10" y="50" width="80" height="80" as="geometry" />
        </mxCell>
        <mxCell id="QiqNDmQ0jad0ljrt0aQA-35" style="edgeStyle=orthogonalEdgeStyle;rounded=0;orthogonalLoop=1;jettySize=auto;html=1;entryX=1;entryY=0.5;entryDx=0;entryDy=0;fillColor=#d80073;strokeColor=#A50040;" edge="1" parent="1" source="QiqNDmQ0jad0ljrt0aQA-2" target="QiqNDmQ0jad0ljrt0aQA-3">
          <mxGeometry relative="1" as="geometry" />
        </mxCell>
        <mxCell id="QiqNDmQ0jad0ljrt0aQA-2" value="reprocessa&lt;br&gt;step-2" style="ellipse;whiteSpace=wrap;html=1;aspect=fixed;fillColor=#f8cecc;strokeColor=#b85450;" vertex="1" parent="1">
          <mxGeometry x="700" y="680" width="80" height="80" as="geometry" />
        </mxCell>
        <mxCell id="QiqNDmQ0jad0ljrt0aQA-31" style="edgeStyle=orthogonalEdgeStyle;rounded=0;orthogonalLoop=1;jettySize=auto;html=1;entryX=0.5;entryY=1;entryDx=0;entryDy=0;" edge="1" parent="1" source="QiqNDmQ0jad0ljrt0aQA-3" target="QiqNDmQ0jad0ljrt0aQA-30">
          <mxGeometry relative="1" as="geometry" />
        </mxCell>
        <mxCell id="QiqNDmQ0jad0ljrt0aQA-3" value="request no serasa" style="ellipse;whiteSpace=wrap;html=1;aspect=fixed;fillColor=#0050ef;strokeColor=#001DBC;fontColor=#ffffff;" vertex="1" parent="1">
          <mxGeometry x="560" y="440" width="80" height="80" as="geometry" />
        </mxCell>
        <mxCell id="QiqNDmQ0jad0ljrt0aQA-4" value="tb - cpfs para consulta" style="shape=cylinder3;whiteSpace=wrap;html=1;boundedLbl=1;backgroundOutline=1;size=15;fillColor=#a20025;fontColor=#ffffff;strokeColor=#6F0000;" vertex="1" parent="1">
          <mxGeometry x="160" y="200" width="60" height="80" as="geometry" />
        </mxCell>
        <mxCell id="QiqNDmQ0jad0ljrt0aQA-8" style="edgeStyle=orthogonalEdgeStyle;rounded=0;orthogonalLoop=1;jettySize=auto;html=1;entryX=0.5;entryY=1;entryDx=0;entryDy=0;entryPerimeter=0;fillColor=#6a00ff;strokeColor=#3700CC;" edge="1" parent="1" source="QiqNDmQ0jad0ljrt0aQA-7" target="QiqNDmQ0jad0ljrt0aQA-4">
          <mxGeometry relative="1" as="geometry" />
        </mxCell>
        <mxCell id="QiqNDmQ0jad0ljrt0aQA-27" style="edgeStyle=orthogonalEdgeStyle;rounded=0;orthogonalLoop=1;jettySize=auto;html=1;entryX=0.417;entryY=-0.017;entryDx=0;entryDy=0;entryPerimeter=0;fillColor=#6a00ff;strokeColor=#3700CC;" edge="1" parent="1" source="QiqNDmQ0jad0ljrt0aQA-7" target="QiqNDmQ0jad0ljrt0aQA-24">
          <mxGeometry relative="1" as="geometry" />
        </mxCell>
        <mxCell id="QiqNDmQ0jad0ljrt0aQA-7" value="validate status cpf" style="ellipse;whiteSpace=wrap;html=1;aspect=fixed;fillColor=#0050ef;strokeColor=#001DBC;fontColor=#ffffff;" vertex="1" parent="1">
          <mxGeometry x="280" y="280" width="80" height="80" as="geometry" />
        </mxCell>
        <mxCell id="QiqNDmQ0jad0ljrt0aQA-25" style="edgeStyle=orthogonalEdgeStyle;rounded=0;orthogonalLoop=1;jettySize=auto;html=1;entryX=1;entryY=0.5;entryDx=0;entryDy=0;fillColor=#6a00ff;strokeColor=#3700CC;" edge="1" parent="1" source="QiqNDmQ0jad0ljrt0aQA-19" target="QiqNDmQ0jad0ljrt0aQA-7">
          <mxGeometry relative="1" as="geometry" />
        </mxCell>
        <mxCell id="QiqNDmQ0jad0ljrt0aQA-19" value="DADOS FINAIS" style="shape=cylinder3;whiteSpace=wrap;html=1;boundedLbl=1;backgroundOutline=1;size=15;fillColor=#a20025;fontColor=#ffffff;strokeColor=#6F0000;" vertex="1" parent="1">
          <mxGeometry x="490" y="10" width="60" height="80" as="geometry" />
        </mxCell>
        <mxCell id="QiqNDmQ0jad0ljrt0aQA-28" style="edgeStyle=orthogonalEdgeStyle;rounded=0;orthogonalLoop=1;jettySize=auto;html=1;entryX=0.5;entryY=1;entryDx=0;entryDy=0;fillColor=#6a00ff;strokeColor=#3700CC;" edge="1" parent="1" source="QiqNDmQ0jad0ljrt0aQA-24" target="QiqNDmQ0jad0ljrt0aQA-3">
          <mxGeometry relative="1" as="geometry" />
        </mxCell>
        <mxCell id="QiqNDmQ0jad0ljrt0aQA-24" value="somente os que não foram consultados" style="shape=process;whiteSpace=wrap;html=1;backgroundOutline=1;fillColor=#60a917;fontColor=#ffffff;strokeColor=#2D7600;" vertex="1" parent="1">
          <mxGeometry x="270" y="690" width="120" height="60" as="geometry" />
        </mxCell>
        <mxCell id="QiqNDmQ0jad0ljrt0aQA-34" style="edgeStyle=orthogonalEdgeStyle;rounded=0;orthogonalLoop=1;jettySize=auto;html=1;entryX=0.5;entryY=0;entryDx=0;entryDy=0;fillColor=#e51400;strokeColor=#B20000;" edge="1" parent="1" source="QiqNDmQ0jad0ljrt0aQA-30" target="QiqNDmQ0jad0ljrt0aQA-2">
          <mxGeometry relative="1" as="geometry" />
        </mxCell>
        <mxCell id="QiqNDmQ0jad0ljrt0aQA-36" value="Deu error" style="edgeLabel;html=1;align=center;verticalAlign=middle;resizable=0;points=[];" vertex="1" connectable="0" parent="QiqNDmQ0jad0ljrt0aQA-34">
          <mxGeometry x="-0.4949" y="1" relative="1" as="geometry">
            <mxPoint as="offset" />
          </mxGeometry>
        </mxCell>
        <mxCell id="QiqNDmQ0jad0ljrt0aQA-38" style="edgeStyle=orthogonalEdgeStyle;rounded=0;orthogonalLoop=1;jettySize=auto;html=1;entryX=0;entryY=0.5;entryDx=0;entryDy=0;exitX=0.5;exitY=0;exitDx=0;exitDy=0;fillColor=#6a00ff;strokeColor=#3700CC;" edge="1" parent="1" source="QiqNDmQ0jad0ljrt0aQA-30" target="QiqNDmQ0jad0ljrt0aQA-37">
          <mxGeometry relative="1" as="geometry" />
        </mxCell>
        <mxCell id="QiqNDmQ0jad0ljrt0aQA-40" value="não deu erro" style="edgeLabel;html=1;align=center;verticalAlign=middle;resizable=0;points=[];" vertex="1" connectable="0" parent="QiqNDmQ0jad0ljrt0aQA-38">
          <mxGeometry x="-0.21" y="2" relative="1" as="geometry">
            <mxPoint as="offset" />
          </mxGeometry>
        </mxCell>
        <mxCell id="QiqNDmQ0jad0ljrt0aQA-30" value="error" style="rhombus;whiteSpace=wrap;html=1;fillColor=#f8cecc;strokeColor=#b85450;" vertex="1" parent="1">
          <mxGeometry x="560" y="270" width="80" height="80" as="geometry" />
        </mxCell>
        <mxCell id="QiqNDmQ0jad0ljrt0aQA-39" style="edgeStyle=orthogonalEdgeStyle;rounded=0;orthogonalLoop=1;jettySize=auto;html=1;entryX=1;entryY=0.5;entryDx=0;entryDy=0;entryPerimeter=0;exitX=0.5;exitY=0;exitDx=0;exitDy=0;fillColor=#6a00ff;strokeColor=#3700CC;" edge="1" parent="1" source="QiqNDmQ0jad0ljrt0aQA-37" target="QiqNDmQ0jad0ljrt0aQA-19">
          <mxGeometry relative="1" as="geometry" />
        </mxCell>
        <mxCell id="QiqNDmQ0jad0ljrt0aQA-37" value="ingestão de dados" style="ellipse;whiteSpace=wrap;html=1;aspect=fixed;fillColor=#0050ef;strokeColor=#001DBC;fontColor=#ffffff;" vertex="1" parent="1">
          <mxGeometry x="680" y="110" width="80" height="80" as="geometry" />
        </mxCell>
      </root>
    </mxGraphModel>
  </diagram>
</mxfile>
